<mxfile host="Electron" modified="2023-06-04T19:54:02.332Z" agent="Mozilla/5.0 (X11; Linux x86_64) AppleWebKit/537.36 (KHTML, like Gecko) draw.io/21.2.8 Chrome/106.0.5249.199 Electron/21.4.4 Safari/537.36" etag="6UIzH2STScRNmlme84Sg" version="21.2.8" type="device">
  <diagram name="Page-1" id="2YBvvXClWsGukQMizWep">
    <mxGraphModel dx="1434" dy="837" grid="1" gridSize="10" guides="1" tooltips="1" connect="1" arrows="1" fold="1" page="1" pageScale="1" pageWidth="850" pageHeight="1100" math="0" shadow="0">
      <root>
        <mxCell id="0" />
        <mxCell id="1" parent="0" />
        <mxCell id="ktm_b5DkEOLJ1aDsXntB-1" value="Main-View" style="shape=umlLifeline;perimeter=lifelinePerimeter;whiteSpace=wrap;html=1;container=1;dropTarget=0;collapsible=0;recursiveResize=0;outlineConnect=0;portConstraint=eastwest;newEdgeStyle={&quot;edgeStyle&quot;:&quot;elbowEdgeStyle&quot;,&quot;elbow&quot;:&quot;vertical&quot;,&quot;curved&quot;:0,&quot;rounded&quot;:0};fillColor=#d5e8d4;strokeColor=#82b366;" vertex="1" parent="1">
          <mxGeometry x="30" y="40" width="100" height="840" as="geometry" />
        </mxCell>
        <mxCell id="ktm_b5DkEOLJ1aDsXntB-46" value="" style="html=1;points=[];perimeter=orthogonalPerimeter;outlineConnect=0;targetShapes=umlLifeline;portConstraint=eastwest;newEdgeStyle={&quot;edgeStyle&quot;:&quot;elbowEdgeStyle&quot;,&quot;elbow&quot;:&quot;vertical&quot;,&quot;curved&quot;:0,&quot;rounded&quot;:0};fillColor=#fff2cc;strokeColor=#d6b656;" vertex="1" parent="ktm_b5DkEOLJ1aDsXntB-1">
          <mxGeometry x="45" y="123" width="10" height="467" as="geometry" />
        </mxCell>
        <mxCell id="ktm_b5DkEOLJ1aDsXntB-2" value="MainViewController" style="shape=umlLifeline;perimeter=lifelinePerimeter;whiteSpace=wrap;html=1;container=1;dropTarget=0;collapsible=0;recursiveResize=0;outlineConnect=0;portConstraint=eastwest;newEdgeStyle={&quot;edgeStyle&quot;:&quot;elbowEdgeStyle&quot;,&quot;elbow&quot;:&quot;vertical&quot;,&quot;curved&quot;:0,&quot;rounded&quot;:0};fillColor=#d5e8d4;strokeColor=#82b366;" vertex="1" parent="1">
          <mxGeometry x="180" y="40" width="110" height="820" as="geometry" />
        </mxCell>
        <mxCell id="ktm_b5DkEOLJ1aDsXntB-47" value="" style="html=1;points=[];perimeter=orthogonalPerimeter;outlineConnect=0;targetShapes=umlLifeline;portConstraint=eastwest;newEdgeStyle={&quot;edgeStyle&quot;:&quot;elbowEdgeStyle&quot;,&quot;elbow&quot;:&quot;vertical&quot;,&quot;curved&quot;:0,&quot;rounded&quot;:0};fillColor=#fff2cc;strokeColor=#d6b656;" vertex="1" parent="ktm_b5DkEOLJ1aDsXntB-2">
          <mxGeometry x="50" y="126" width="10" height="464" as="geometry" />
        </mxCell>
        <mxCell id="ktm_b5DkEOLJ1aDsXntB-3" value="RoutesManager" style="shape=umlLifeline;perimeter=lifelinePerimeter;whiteSpace=wrap;html=1;container=1;dropTarget=0;collapsible=0;recursiveResize=0;outlineConnect=0;portConstraint=eastwest;newEdgeStyle={&quot;edgeStyle&quot;:&quot;elbowEdgeStyle&quot;,&quot;elbow&quot;:&quot;vertical&quot;,&quot;curved&quot;:0,&quot;rounded&quot;:0};fillColor=#d5e8d4;strokeColor=#82b366;" vertex="1" parent="1">
          <mxGeometry x="340" y="40" width="100" height="840" as="geometry" />
        </mxCell>
        <mxCell id="ktm_b5DkEOLJ1aDsXntB-48" value="" style="html=1;points=[];perimeter=orthogonalPerimeter;outlineConnect=0;targetShapes=umlLifeline;portConstraint=eastwest;newEdgeStyle={&quot;edgeStyle&quot;:&quot;elbowEdgeStyle&quot;,&quot;elbow&quot;:&quot;vertical&quot;,&quot;curved&quot;:0,&quot;rounded&quot;:0};fillColor=#fff2cc;strokeColor=#d6b656;" vertex="1" parent="ktm_b5DkEOLJ1aDsXntB-3">
          <mxGeometry x="45" y="148" width="10" height="22" as="geometry" />
        </mxCell>
        <mxCell id="ktm_b5DkEOLJ1aDsXntB-4" value="CrearEquipoView" style="shape=umlLifeline;perimeter=lifelinePerimeter;whiteSpace=wrap;html=1;container=1;dropTarget=0;collapsible=0;recursiveResize=0;outlineConnect=0;portConstraint=eastwest;newEdgeStyle={&quot;edgeStyle&quot;:&quot;elbowEdgeStyle&quot;,&quot;elbow&quot;:&quot;vertical&quot;,&quot;curved&quot;:0,&quot;rounded&quot;:0};fillColor=#d5e8d4;strokeColor=#82b366;" vertex="1" parent="1">
          <mxGeometry x="490" y="40" width="100" height="840" as="geometry" />
        </mxCell>
        <mxCell id="ktm_b5DkEOLJ1aDsXntB-49" value="" style="html=1;points=[];perimeter=orthogonalPerimeter;outlineConnect=0;targetShapes=umlLifeline;portConstraint=eastwest;newEdgeStyle={&quot;edgeStyle&quot;:&quot;elbowEdgeStyle&quot;,&quot;elbow&quot;:&quot;vertical&quot;,&quot;curved&quot;:0,&quot;rounded&quot;:0};fillColor=#fff2cc;strokeColor=#d6b656;" vertex="1" parent="ktm_b5DkEOLJ1aDsXntB-4">
          <mxGeometry x="45" y="170" width="10" height="420" as="geometry" />
        </mxCell>
        <mxCell id="ktm_b5DkEOLJ1aDsXntB-5" value="CrearEquipoViewController" style="shape=umlLifeline;perimeter=lifelinePerimeter;whiteSpace=wrap;html=1;container=1;dropTarget=0;collapsible=0;recursiveResize=0;outlineConnect=0;portConstraint=eastwest;newEdgeStyle={&quot;edgeStyle&quot;:&quot;elbowEdgeStyle&quot;,&quot;elbow&quot;:&quot;vertical&quot;,&quot;curved&quot;:0,&quot;rounded&quot;:0};fillColor=#d5e8d4;strokeColor=#82b366;" vertex="1" parent="1">
          <mxGeometry x="640" y="40" width="150" height="810" as="geometry" />
        </mxCell>
        <mxCell id="ktm_b5DkEOLJ1aDsXntB-51" value="" style="html=1;points=[];perimeter=orthogonalPerimeter;outlineConnect=0;targetShapes=umlLifeline;portConstraint=eastwest;newEdgeStyle={&quot;edgeStyle&quot;:&quot;elbowEdgeStyle&quot;,&quot;elbow&quot;:&quot;vertical&quot;,&quot;curved&quot;:0,&quot;rounded&quot;:0};fillColor=#fff2cc;strokeColor=#d6b656;" vertex="1" parent="ktm_b5DkEOLJ1aDsXntB-5">
          <mxGeometry x="70" y="178" width="10" height="412" as="geometry" />
        </mxCell>
        <mxCell id="ktm_b5DkEOLJ1aDsXntB-6" value="EquipoValidator" style="shape=umlLifeline;perimeter=lifelinePerimeter;whiteSpace=wrap;html=1;container=1;dropTarget=0;collapsible=0;recursiveResize=0;outlineConnect=0;portConstraint=eastwest;newEdgeStyle={&quot;edgeStyle&quot;:&quot;elbowEdgeStyle&quot;,&quot;elbow&quot;:&quot;vertical&quot;,&quot;curved&quot;:0,&quot;rounded&quot;:0};fillColor=#d5e8d4;strokeColor=#82b366;" vertex="1" parent="1">
          <mxGeometry x="840" y="40" width="100" height="830" as="geometry" />
        </mxCell>
        <mxCell id="ktm_b5DkEOLJ1aDsXntB-52" value="" style="html=1;points=[];perimeter=orthogonalPerimeter;outlineConnect=0;targetShapes=umlLifeline;portConstraint=eastwest;newEdgeStyle={&quot;edgeStyle&quot;:&quot;elbowEdgeStyle&quot;,&quot;elbow&quot;:&quot;vertical&quot;,&quot;curved&quot;:0,&quot;rounded&quot;:0};fillColor=#fff2cc;strokeColor=#d6b656;" vertex="1" parent="ktm_b5DkEOLJ1aDsXntB-6">
          <mxGeometry x="45" y="190" width="10" height="50" as="geometry" />
        </mxCell>
        <mxCell id="ktm_b5DkEOLJ1aDsXntB-7" value="EquipoViewModel" style="shape=umlLifeline;perimeter=lifelinePerimeter;whiteSpace=wrap;html=1;container=1;dropTarget=0;collapsible=0;recursiveResize=0;outlineConnect=0;portConstraint=eastwest;newEdgeStyle={&quot;edgeStyle&quot;:&quot;elbowEdgeStyle&quot;,&quot;elbow&quot;:&quot;vertical&quot;,&quot;curved&quot;:0,&quot;rounded&quot;:0};fillColor=#d5e8d4;strokeColor=#82b366;" vertex="1" parent="1">
          <mxGeometry x="1000" y="40" width="100" height="840" as="geometry" />
        </mxCell>
        <mxCell id="ktm_b5DkEOLJ1aDsXntB-8" value="EquipoRepository" style="shape=umlLifeline;perimeter=lifelinePerimeter;whiteSpace=wrap;html=1;container=1;dropTarget=0;collapsible=0;recursiveResize=0;outlineConnect=0;portConstraint=eastwest;newEdgeStyle={&quot;edgeStyle&quot;:&quot;elbowEdgeStyle&quot;,&quot;elbow&quot;:&quot;vertical&quot;,&quot;curved&quot;:0,&quot;rounded&quot;:0};fillColor=#d5e8d4;strokeColor=#82b366;" vertex="1" parent="1">
          <mxGeometry x="1160" y="40" width="110" height="830" as="geometry" />
        </mxCell>
        <mxCell id="ktm_b5DkEOLJ1aDsXntB-9" value="DatabaseManager" style="shape=umlLifeline;perimeter=lifelinePerimeter;whiteSpace=wrap;html=1;container=1;dropTarget=0;collapsible=0;recursiveResize=0;outlineConnect=0;portConstraint=eastwest;newEdgeStyle={&quot;edgeStyle&quot;:&quot;elbowEdgeStyle&quot;,&quot;elbow&quot;:&quot;vertical&quot;,&quot;curved&quot;:0,&quot;rounded&quot;:0};fillColor=#d5e8d4;strokeColor=#82b366;" vertex="1" parent="1">
          <mxGeometry x="1320" y="40" width="100" height="850" as="geometry" />
        </mxCell>
        <mxCell id="ktm_b5DkEOLJ1aDsXntB-11" value="" style="endArrow=classic;html=1;rounded=0;" edge="1" parent="1">
          <mxGeometry width="50" height="50" relative="1" as="geometry">
            <mxPoint x="79.75925925925912" y="164" as="sourcePoint" />
            <mxPoint x="234.5" y="164" as="targetPoint" />
          </mxGeometry>
        </mxCell>
        <mxCell id="ktm_b5DkEOLJ1aDsXntB-12" value="" style="endArrow=classic;html=1;rounded=0;" edge="1" parent="1">
          <mxGeometry width="50" height="50" relative="1" as="geometry">
            <mxPoint x="234.75925925925912" y="187" as="sourcePoint" />
            <mxPoint x="389.5" y="187" as="targetPoint" />
          </mxGeometry>
        </mxCell>
        <mxCell id="ktm_b5DkEOLJ1aDsXntB-13" value="" style="endArrow=classic;html=1;rounded=0;" edge="1" parent="1">
          <mxGeometry width="50" height="50" relative="1" as="geometry">
            <mxPoint x="388.7592592592591" y="207" as="sourcePoint" />
            <mxPoint x="543.5" y="207" as="targetPoint" />
          </mxGeometry>
        </mxCell>
        <mxCell id="ktm_b5DkEOLJ1aDsXntB-14" value="" style="endArrow=classic;html=1;rounded=0;" edge="1" parent="1" target="ktm_b5DkEOLJ1aDsXntB-5">
          <mxGeometry width="50" height="50" relative="1" as="geometry">
            <mxPoint x="539.7592592592591" y="217" as="sourcePoint" />
            <mxPoint x="694.5" y="217" as="targetPoint" />
          </mxGeometry>
        </mxCell>
        <mxCell id="ktm_b5DkEOLJ1aDsXntB-15" value="" style="endArrow=classic;html=1;rounded=0;" edge="1" parent="1">
          <mxGeometry width="50" height="50" relative="1" as="geometry">
            <mxPoint x="714.7592592592591" y="231" as="sourcePoint" />
            <mxPoint x="890" y="231" as="targetPoint" />
          </mxGeometry>
        </mxCell>
        <mxCell id="ktm_b5DkEOLJ1aDsXntB-16" value="" style="endArrow=classic;html=1;rounded=0;dashed=1;" edge="1" parent="1">
          <mxGeometry width="50" height="50" relative="1" as="geometry">
            <mxPoint x="889.5" y="275" as="sourcePoint" />
            <mxPoint x="714.7592592592596" y="275" as="targetPoint" />
          </mxGeometry>
        </mxCell>
        <mxCell id="ktm_b5DkEOLJ1aDsXntB-17" value="[crearEquipo]" style="text;html=1;align=center;verticalAlign=middle;resizable=0;points=[];autosize=1;strokeColor=none;fillColor=none;" vertex="1" parent="1">
          <mxGeometry x="110" y="130" width="90" height="30" as="geometry" />
        </mxCell>
        <mxCell id="ktm_b5DkEOLJ1aDsXntB-18" value="onCrearEquipo()" style="text;html=1;align=center;verticalAlign=middle;resizable=0;points=[];autosize=1;strokeColor=none;fillColor=none;" vertex="1" parent="1">
          <mxGeometry x="250" y="160" width="110" height="30" as="geometry" />
        </mxCell>
        <mxCell id="ktm_b5DkEOLJ1aDsXntB-19" value="initCrearEquipoView()" style="text;html=1;align=center;verticalAlign=middle;resizable=0;points=[];autosize=1;strokeColor=none;fillColor=none;" vertex="1" parent="1">
          <mxGeometry x="400" y="178" width="140" height="30" as="geometry" />
        </mxCell>
        <mxCell id="ktm_b5DkEOLJ1aDsXntB-20" value="crearEquipo(equipo)" style="text;html=1;align=center;verticalAlign=middle;resizable=0;points=[];autosize=1;strokeColor=none;fillColor=none;" vertex="1" parent="1">
          <mxGeometry x="555" y="188" width="130" height="30" as="geometry" />
        </mxCell>
        <mxCell id="ktm_b5DkEOLJ1aDsXntB-21" value="equipo.validate()" style="text;html=1;align=center;verticalAlign=middle;resizable=0;points=[];autosize=1;strokeColor=none;fillColor=none;" vertex="1" parent="1">
          <mxGeometry x="750" y="206" width="110" height="30" as="geometry" />
        </mxCell>
        <mxCell id="ktm_b5DkEOLJ1aDsXntB-22" value="return Result" style="text;html=1;align=center;verticalAlign=middle;resizable=0;points=[];autosize=1;strokeColor=none;fillColor=none;" vertex="1" parent="1">
          <mxGeometry x="755" y="248" width="90" height="30" as="geometry" />
        </mxCell>
        <mxCell id="ktm_b5DkEOLJ1aDsXntB-24" value="[Result Ok]" style="text;html=1;align=center;verticalAlign=middle;resizable=0;points=[];autosize=1;strokeColor=none;fillColor=none;" vertex="1" parent="1">
          <mxGeometry x="90" y="348" width="80" height="30" as="geometry" />
        </mxCell>
        <mxCell id="ktm_b5DkEOLJ1aDsXntB-25" value="[Result Err]" style="text;html=1;align=center;verticalAlign=middle;resizable=0;points=[];autosize=1;strokeColor=none;fillColor=none;" vertex="1" parent="1">
          <mxGeometry x="90" y="540" width="80" height="30" as="geometry" />
        </mxCell>
        <mxCell id="ktm_b5DkEOLJ1aDsXntB-27" value="" style="endArrow=classic;html=1;rounded=0;" edge="1" parent="1" target="ktm_b5DkEOLJ1aDsXntB-7">
          <mxGeometry width="50" height="50" relative="1" as="geometry">
            <mxPoint x="714.7592592592591" y="347" as="sourcePoint" />
            <mxPoint x="890" y="347" as="targetPoint" />
          </mxGeometry>
        </mxCell>
        <mxCell id="ktm_b5DkEOLJ1aDsXntB-29" value="crearEquipo(equipo)" style="text;html=1;align=center;verticalAlign=middle;resizable=0;points=[];autosize=1;strokeColor=none;fillColor=none;" vertex="1" parent="1">
          <mxGeometry x="730" y="320" width="130" height="30" as="geometry" />
        </mxCell>
        <mxCell id="ktm_b5DkEOLJ1aDsXntB-31" value="" style="curved=1;endArrow=classic;html=1;rounded=0;" edge="1" parent="1" target="ktm_b5DkEOLJ1aDsXntB-54">
          <mxGeometry width="50" height="50" relative="1" as="geometry">
            <mxPoint x="1050" y="348" as="sourcePoint" />
            <mxPoint x="1100" y="298" as="targetPoint" />
            <Array as="points">
              <mxPoint x="1100" y="348" />
              <mxPoint x="1090" y="380" />
              <mxPoint x="1080" y="380" />
            </Array>
          </mxGeometry>
        </mxCell>
        <mxCell id="ktm_b5DkEOLJ1aDsXntB-32" value="updateState()" style="text;html=1;align=center;verticalAlign=middle;resizable=0;points=[];autosize=1;strokeColor=none;fillColor=none;" vertex="1" parent="1">
          <mxGeometry x="1050" y="320" width="100" height="30" as="geometry" />
        </mxCell>
        <mxCell id="ktm_b5DkEOLJ1aDsXntB-33" value="" style="endArrow=classic;html=1;rounded=0;" edge="1" parent="1">
          <mxGeometry width="50" height="50" relative="1" as="geometry">
            <mxPoint x="1049.7592592592591" y="401" as="sourcePoint" />
            <mxPoint x="1214.5" y="401" as="targetPoint" />
          </mxGeometry>
        </mxCell>
        <mxCell id="ktm_b5DkEOLJ1aDsXntB-34" value="save(equipo)" style="text;html=1;align=center;verticalAlign=middle;resizable=0;points=[];autosize=1;strokeColor=none;fillColor=none;" vertex="1" parent="1">
          <mxGeometry x="1090" y="368" width="90" height="30" as="geometry" />
        </mxCell>
        <mxCell id="ktm_b5DkEOLJ1aDsXntB-35" value="" style="endArrow=classic;html=1;rounded=0;" edge="1" parent="1">
          <mxGeometry width="50" height="50" relative="1" as="geometry">
            <mxPoint x="1215.7592592592591" y="431" as="sourcePoint" />
            <mxPoint x="1370" y="430" as="targetPoint" />
          </mxGeometry>
        </mxCell>
        <mxCell id="ktm_b5DkEOLJ1aDsXntB-36" value="save(equipo)" style="text;html=1;align=center;verticalAlign=middle;resizable=0;points=[];autosize=1;strokeColor=none;fillColor=none;" vertex="1" parent="1">
          <mxGeometry x="1250" y="398" width="90" height="30" as="geometry" />
        </mxCell>
        <mxCell id="ktm_b5DkEOLJ1aDsXntB-37" value="" style="endArrow=classic;html=1;rounded=0;dashed=1;" edge="1" parent="1" target="ktm_b5DkEOLJ1aDsXntB-8">
          <mxGeometry width="50" height="50" relative="1" as="geometry">
            <mxPoint x="1369.5" y="475" as="sourcePoint" />
            <mxPoint x="1210" y="475" as="targetPoint" />
          </mxGeometry>
        </mxCell>
        <mxCell id="ktm_b5DkEOLJ1aDsXntB-38" value="return equipo" style="text;html=1;align=center;verticalAlign=middle;resizable=0;points=[];autosize=1;strokeColor=none;fillColor=none;" vertex="1" parent="1">
          <mxGeometry x="1250" y="450" width="90" height="30" as="geometry" />
        </mxCell>
        <mxCell id="ktm_b5DkEOLJ1aDsXntB-39" value="" style="endArrow=classic;html=1;rounded=0;dashed=1;" edge="1" parent="1" source="ktm_b5DkEOLJ1aDsXntB-8">
          <mxGeometry width="50" height="50" relative="1" as="geometry">
            <mxPoint x="1205.5" y="485" as="sourcePoint" />
            <mxPoint x="1051" y="485" as="targetPoint" />
          </mxGeometry>
        </mxCell>
        <mxCell id="ktm_b5DkEOLJ1aDsXntB-40" value="return equipo" style="text;html=1;align=center;verticalAlign=middle;resizable=0;points=[];autosize=1;strokeColor=none;fillColor=none;" vertex="1" parent="1">
          <mxGeometry x="1086" y="460" width="90" height="30" as="geometry" />
        </mxCell>
        <mxCell id="ktm_b5DkEOLJ1aDsXntB-41" value="" style="endArrow=classic;html=1;rounded=0;dashed=1;" edge="1" parent="1" target="ktm_b5DkEOLJ1aDsXntB-1">
          <mxGeometry width="50" height="50" relative="1" as="geometry">
            <mxPoint x="1050" y="505" as="sourcePoint" />
            <mxPoint x="886" y="505" as="targetPoint" />
          </mxGeometry>
        </mxCell>
        <mxCell id="ktm_b5DkEOLJ1aDsXntB-42" value="return Ok(equipo)" style="text;html=1;align=center;verticalAlign=middle;resizable=0;points=[];autosize=1;strokeColor=none;fillColor=none;" vertex="1" parent="1">
          <mxGeometry x="560" y="470" width="120" height="30" as="geometry" />
        </mxCell>
        <mxCell id="ktm_b5DkEOLJ1aDsXntB-43" value="" style="endArrow=classic;html=1;rounded=0;dashed=1;" edge="1" parent="1" target="ktm_b5DkEOLJ1aDsXntB-1">
          <mxGeometry width="50" height="50" relative="1" as="geometry">
            <mxPoint x="715" y="625" as="sourcePoint" />
            <mxPoint x="551" y="625" as="targetPoint" />
          </mxGeometry>
        </mxCell>
        <mxCell id="ktm_b5DkEOLJ1aDsXntB-44" value="return Err(EquipoError)" style="text;html=1;align=center;verticalAlign=middle;resizable=0;points=[];autosize=1;strokeColor=none;fillColor=none;" vertex="1" parent="1">
          <mxGeometry x="550" y="590" width="150" height="30" as="geometry" />
        </mxCell>
        <mxCell id="ktm_b5DkEOLJ1aDsXntB-45" value="Alt" style="shape=umlFrame;whiteSpace=wrap;html=1;pointerEvents=0;fillColor=#dae8fc;strokeColor=#6c8ebf;" vertex="1" parent="1">
          <mxGeometry x="60" y="300" width="1500" height="420" as="geometry" />
        </mxCell>
        <mxCell id="ktm_b5DkEOLJ1aDsXntB-53" value="" style="html=1;points=[];perimeter=orthogonalPerimeter;outlineConnect=0;targetShapes=umlLifeline;portConstraint=eastwest;newEdgeStyle={&quot;edgeStyle&quot;:&quot;elbowEdgeStyle&quot;,&quot;elbow&quot;:&quot;vertical&quot;,&quot;curved&quot;:0,&quot;rounded&quot;:0};fillColor=#fff2cc;strokeColor=#d6b656;" vertex="1" parent="1">
          <mxGeometry x="1040" y="348" width="10" height="162" as="geometry" />
        </mxCell>
        <mxCell id="ktm_b5DkEOLJ1aDsXntB-54" value="" style="html=1;points=[];perimeter=orthogonalPerimeter;outlineConnect=0;targetShapes=umlLifeline;portConstraint=eastwest;newEdgeStyle={&quot;edgeStyle&quot;:&quot;elbowEdgeStyle&quot;,&quot;elbow&quot;:&quot;vertical&quot;,&quot;curved&quot;:0,&quot;rounded&quot;:0};fillColor=#fff2cc;strokeColor=#d6b656;" vertex="1" parent="1">
          <mxGeometry x="1050" y="350" width="10" height="30" as="geometry" />
        </mxCell>
        <mxCell id="ktm_b5DkEOLJ1aDsXntB-55" value="" style="html=1;points=[];perimeter=orthogonalPerimeter;outlineConnect=0;targetShapes=umlLifeline;portConstraint=eastwest;newEdgeStyle={&quot;edgeStyle&quot;:&quot;elbowEdgeStyle&quot;,&quot;elbow&quot;:&quot;vertical&quot;,&quot;curved&quot;:0,&quot;rounded&quot;:0};fillColor=#fff2cc;strokeColor=#d6b656;" vertex="1" parent="1">
          <mxGeometry x="1210" y="405" width="10" height="80" as="geometry" />
        </mxCell>
        <mxCell id="ktm_b5DkEOLJ1aDsXntB-56" value="" style="html=1;points=[];perimeter=orthogonalPerimeter;outlineConnect=0;targetShapes=umlLifeline;portConstraint=eastwest;newEdgeStyle={&quot;edgeStyle&quot;:&quot;elbowEdgeStyle&quot;,&quot;elbow&quot;:&quot;vertical&quot;,&quot;curved&quot;:0,&quot;rounded&quot;:0};fillColor=#fff2cc;strokeColor=#d6b656;" vertex="1" parent="1">
          <mxGeometry x="1365" y="430" width="10" height="50" as="geometry" />
        </mxCell>
      </root>
    </mxGraphModel>
  </diagram>
</mxfile>
